<mxfile host="app.diagrams.net" modified="2022-08-01T01:49:24.105Z" agent="5.0 (Windows NT 10.0; Win64; x64) AppleWebKit/537.36 (KHTML, like Gecko) Chrome/103.0.0.0 Safari/537.36" etag="xBZ6-ya1HJ99O5ua-TQ5" version="20.2.2" type="github">
  <diagram name="appUpdate_github" id="74e2e168-ea6b-b213-b513-2b3c1d86103e">
    <mxGraphModel dx="1422" dy="817" grid="1" gridSize="10" guides="1" tooltips="1" connect="1" arrows="1" fold="1" page="1" pageScale="1" pageWidth="1100" pageHeight="850" background="none" math="0" shadow="0">
      <root>
        <mxCell id="0" />
        <mxCell id="1" parent="0" />
        <mxCell id="9h3Yn2aETPTjFxHvk9FR-1" value="" style="html=1;points=[];perimeter=orthogonalPerimeter;" vertex="1" parent="1">
          <mxGeometry x="550" y="80" width="20" height="80" as="geometry" />
        </mxCell>
        <mxCell id="9h3Yn2aETPTjFxHvk9FR-2" value="dispatch" style="html=1;verticalAlign=bottom;endArrow=block;entryX=0;entryY=0;rounded=0;" edge="1" target="9h3Yn2aETPTjFxHvk9FR-1" parent="1">
          <mxGeometry relative="1" as="geometry">
            <mxPoint x="490" y="80" as="sourcePoint" />
          </mxGeometry>
        </mxCell>
        <mxCell id="9h3Yn2aETPTjFxHvk9FR-3" value="return" style="html=1;verticalAlign=bottom;endArrow=open;dashed=1;endSize=8;exitX=0;exitY=0.95;rounded=0;" edge="1" source="9h3Yn2aETPTjFxHvk9FR-1" parent="1">
          <mxGeometry relative="1" as="geometry">
            <mxPoint x="490" y="156" as="targetPoint" />
          </mxGeometry>
        </mxCell>
        <mxCell id="9h3Yn2aETPTjFxHvk9FR-4" value="" style="html=1;points=[];perimeter=orthogonalPerimeter;" vertex="1" parent="1">
          <mxGeometry x="310" y="80" width="10" height="80" as="geometry" />
        </mxCell>
        <mxCell id="9h3Yn2aETPTjFxHvk9FR-5" value="cloud github" style="text;html=1;align=center;verticalAlign=middle;resizable=0;points=[];autosize=1;strokeColor=none;fillColor=none;" vertex="1" parent="1">
          <mxGeometry x="270" y="30" width="90" height="30" as="geometry" />
        </mxCell>
        <mxCell id="9h3Yn2aETPTjFxHvk9FR-6" value="app gtune&lt;br&gt;" style="text;html=1;align=center;verticalAlign=middle;resizable=0;points=[];autosize=1;strokeColor=none;fillColor=none;" vertex="1" parent="1">
          <mxGeometry x="480" y="25" width="80" height="30" as="geometry" />
        </mxCell>
      </root>
    </mxGraphModel>
  </diagram>
</mxfile>
